<?xml version="1.0" encoding="utf-8"?>
<!-- Generator: Adobe Illustrator 22.1.0, SVG Export Plug-In . SVG Version: 6.00 Build 0)  -->
<svg version="1.1" id="Layer_1" xmlns="http://www.w3.org/2000/svg" xmlns:xlink="http://www.w3.org/1999/xlink" x="0px" y="0px"
	 viewBox="0 0 320 306.3" style="enable-background:new 0 0 320 306.3;" xml:space="preserve">
<style type="text/css">
	.st0{fill:#FFFFFF;}
	.st1{fill:#FF00AA;}
</style>
<g id="FFlogo">
	<g id="Page-1_1_">
		<g id="logocolor_1_">
			<g id="logoColor_1_" transform="translate(78.000000, 163.000000)">
				<path id="fireflies.ai_1_" class="st0" d="M37.9,37.3h-2.2v-1.5h2.2v-2.3c0-0.6,0.1-1.2,0.2-1.7c0.1-0.5,0.3-1,0.6-1.4
					c0.3-0.4,0.7-0.7,1.1-0.9c0.5-0.2,1-0.3,1.7-0.3c0.2,0,0.5,0,0.7,0.1c0.2,0,0.5,0.1,0.6,0.2l-0.2,1.5c-0.4-0.1-0.8-0.2-1.2-0.2
					c-0.4,0-0.8,0.1-1,0.2c-0.2,0.2-0.4,0.4-0.6,0.6c-0.1,0.3-0.2,0.6-0.2,1c0,0.4,0,0.8,0,1.2v1.9h2.5v1.5h-2.5v8.9h-1.7V37.3z
					 M44.1,35.9h1.7v10.3h-1.7V35.9z M43.7,31.8c0-0.3,0.1-0.6,0.4-0.9c0.2-0.2,0.5-0.4,0.9-0.4c0.4,0,0.6,0.1,0.9,0.4
					c0.2,0.2,0.4,0.5,0.4,0.9c0,0.4-0.1,0.7-0.4,0.9c-0.2,0.2-0.5,0.4-0.9,0.4c-0.4,0-0.7-0.1-0.9-0.4
					C43.8,32.5,43.7,32.2,43.7,31.8z M49.2,38.3c0-0.5,0-0.9,0-1.3c0-0.4,0-0.8,0-1.1h1.6c0,0.3,0,0.6,0,0.8c0,0.3,0,0.6,0,0.9h0
					c0.1-0.2,0.3-0.5,0.5-0.7c0.2-0.2,0.5-0.4,0.8-0.6s0.6-0.3,1-0.4c0.4-0.1,0.8-0.2,1.2-0.2c0.1,0,0.2,0,0.4,0
					c0.1,0,0.2,0,0.4,0.1l-0.1,1.7c-0.3-0.1-0.6-0.1-0.9-0.1c-1.1,0-1.8,0.3-2.3,1c-0.5,0.7-0.7,1.6-0.7,2.8v5h-1.7V38.3z
					 M66.1,44.3c-0.6,0.8-1.3,1.3-2,1.7c-0.7,0.3-1.6,0.5-2.6,0.5c-0.8,0-1.5-0.1-2.2-0.4c-0.6-0.3-1.2-0.7-1.6-1.2
					c-0.4-0.5-0.8-1.1-1-1.7s-0.4-1.4-0.4-2.1c0-0.8,0.1-1.5,0.4-2.2c0.3-0.7,0.6-1.2,1.1-1.7c0.5-0.5,1-0.8,1.7-1.1
					c0.6-0.3,1.4-0.4,2.1-0.4c0.7,0,1.4,0.1,2,0.4c0.6,0.2,1.1,0.6,1.6,1.1c0.4,0.5,0.8,1,1,1.7s0.4,1.4,0.4,2.3v0.6h-8.3
					c0,0.4,0.1,0.9,0.3,1.3c0.2,0.4,0.4,0.8,0.7,1.1c0.3,0.3,0.6,0.5,1,0.7c0.4,0.2,0.8,0.3,1.3,0.3c0.7,0,1.4-0.1,1.9-0.4
					s1-0.7,1.4-1.2L66.1,44.3z M64.7,40.1c0-0.9-0.3-1.6-0.9-2.1c-0.5-0.5-1.3-0.8-2.2-0.8s-1.7,0.3-2.3,0.8
					c-0.6,0.5-0.9,1.2-1.1,2.1H64.7z M70.1,37.3h-2.2v-1.5h2.2v-2.3c0-0.6,0.1-1.2,0.2-1.7c0.1-0.5,0.3-1,0.6-1.4
					c0.3-0.4,0.7-0.7,1.1-0.9c0.5-0.2,1-0.3,1.7-0.3c0.2,0,0.5,0,0.7,0.1s0.5,0.1,0.6,0.2l-0.2,1.5c-0.4-0.1-0.8-0.2-1.2-0.2
					c-0.4,0-0.8,0.1-1,0.2c-0.2,0.2-0.4,0.4-0.6,0.6c-0.1,0.3-0.2,0.6-0.2,1c0,0.4,0,0.8,0,1.2v1.9h2.5v1.5h-2.5v8.9h-1.7V37.3z
					 M76.3,29.5H78v16.6h-1.7V29.5z M81.6,35.9h1.7v10.3h-1.7V35.9z M81.2,31.8c0-0.3,0.1-0.6,0.4-0.9c0.2-0.2,0.5-0.4,0.9-0.4
					s0.6,0.1,0.9,0.4c0.2,0.2,0.4,0.5,0.4,0.9c0,0.4-0.1,0.7-0.4,0.9c-0.2,0.2-0.5,0.4-0.9,0.4c-0.4,0-0.7-0.1-0.9-0.4
					C81.3,32.5,81.2,32.2,81.2,31.8z M95.9,44.3c-0.6,0.8-1.3,1.3-2,1.7s-1.6,0.5-2.6,0.5c-0.8,0-1.5-0.1-2.2-0.4
					c-0.6-0.3-1.2-0.7-1.6-1.2c-0.4-0.5-0.8-1.1-1-1.7s-0.4-1.4-0.4-2.1c0-0.8,0.1-1.5,0.4-2.2c0.3-0.7,0.6-1.2,1.1-1.7
					c0.5-0.5,1-0.8,1.7-1.1c0.6-0.3,1.4-0.4,2.1-0.4c0.7,0,1.4,0.1,2,0.4c0.6,0.2,1.1,0.6,1.6,1.1c0.4,0.5,0.8,1,1,1.7
					s0.4,1.4,0.4,2.3v0.6h-8.3c0,0.4,0.1,0.9,0.3,1.3c0.2,0.4,0.4,0.8,0.7,1.1c0.3,0.3,0.6,0.5,1,0.7c0.4,0.2,0.8,0.3,1.3,0.3
					c0.7,0,1.4-0.1,1.9-0.4s1-0.7,1.4-1.2L95.9,44.3z M94.4,40.1c0-0.9-0.3-1.6-0.9-2.1c-0.5-0.5-1.3-0.8-2.2-0.8
					c-1,0-1.7,0.3-2.3,0.8c-0.6,0.5-0.9,1.2-1.1,2.1H94.4z M99.1,43.5c0.3,0.4,0.7,0.8,1.1,1c0.4,0.2,0.9,0.4,1.5,0.4
					c0.3,0,0.5,0,0.8-0.1c0.3-0.1,0.5-0.2,0.7-0.3c0.2-0.1,0.4-0.3,0.5-0.5c0.1-0.2,0.2-0.4,0.2-0.7c0-0.3-0.1-0.5-0.2-0.7
					c-0.1-0.2-0.3-0.3-0.5-0.5c-0.2-0.1-0.4-0.2-0.7-0.3s-0.5-0.1-0.8-0.2c-0.5-0.1-0.9-0.2-1.4-0.4c-0.4-0.1-0.8-0.3-1.2-0.5
					c-0.3-0.2-0.6-0.5-0.8-0.8s-0.3-0.8-0.3-1.3c0-0.5,0.1-0.9,0.3-1.3c0.2-0.4,0.5-0.7,0.9-0.9s0.8-0.4,1.2-0.6
					c0.5-0.1,0.9-0.2,1.4-0.2c0.7,0,1.4,0.1,2,0.4c0.6,0.3,1.1,0.8,1.5,1.4l-1.4,0.9c-0.2-0.4-0.5-0.7-0.9-0.9
					c-0.4-0.2-0.8-0.3-1.3-0.3c-0.2,0-0.5,0-0.7,0.1c-0.2,0.1-0.5,0.1-0.6,0.3c-0.2,0.1-0.3,0.3-0.5,0.5c-0.1,0.2-0.2,0.4-0.2,0.6
					c0,0.2,0.1,0.4,0.2,0.6s0.3,0.3,0.6,0.4c0.2,0.1,0.5,0.2,0.8,0.3c0.3,0.1,0.6,0.2,1,0.2c0.5,0.1,0.9,0.2,1.3,0.3
					c0.4,0.1,0.8,0.3,1.1,0.6c0.3,0.2,0.6,0.5,0.7,0.9c0.2,0.4,0.3,0.8,0.3,1.3c0,0.6-0.1,1.1-0.4,1.5c-0.2,0.4-0.5,0.7-0.9,1
					c-0.4,0.3-0.8,0.4-1.3,0.6s-1,0.2-1.5,0.2c-0.9,0-1.6-0.1-2.3-0.4c-0.6-0.3-1.2-0.8-1.7-1.5L99.1,43.5z M109.7,43.7
					c0.4,0,0.7,0.1,0.9,0.4c0.3,0.3,0.4,0.6,0.4,0.9s-0.1,0.7-0.4,0.9c-0.3,0.3-0.6,0.4-0.9,0.4c-0.3,0-0.6-0.1-0.9-0.4
					c-0.3-0.3-0.4-0.6-0.4-0.9s0.1-0.7,0.4-0.9C109.1,43.8,109.4,43.7,109.7,43.7z M114.3,37.2c0.5-0.5,1.2-0.9,1.9-1.2
					c0.7-0.3,1.5-0.4,2.2-0.4c1.5,0,2.6,0.4,3.3,1.1c0.7,0.7,1,1.8,1,3.3v4.4c0,0.3,0,0.6,0,0.9c0,0.3,0.1,0.6,0.1,0.9h-1.7
					c-0.1-0.2-0.1-0.5-0.1-0.8c0-0.3,0-0.5,0-0.8h0c-0.3,0.5-0.8,1-1.4,1.3c-0.6,0.3-1.2,0.5-2,0.5c-0.5,0-1-0.1-1.5-0.2
					c-0.5-0.1-0.9-0.3-1.2-0.6c-0.3-0.3-0.6-0.6-0.8-1c-0.2-0.4-0.3-0.8-0.3-1.3c0-0.9,0.2-1.5,0.7-2c0.4-0.5,1-0.8,1.6-1.1
					s1.4-0.4,2.1-0.4c0.8-0.1,1.4-0.1,2.1-0.1h0.7v-0.3c0-0.7-0.2-1.3-0.7-1.7c-0.4-0.4-1.1-0.6-1.9-0.6c-0.6,0-1.1,0.1-1.6,0.3
					s-1,0.5-1.4,0.8L114.3,37.2z M119.3,41.2c-1.1,0-2,0.2-2.6,0.5c-0.6,0.3-1,0.8-1,1.5c0,0.6,0.2,1.1,0.6,1.4
					c0.4,0.3,1,0.4,1.6,0.4c0.5,0,0.9-0.1,1.3-0.3s0.7-0.4,0.9-0.7c0.2-0.3,0.4-0.6,0.6-1c0.1-0.4,0.2-0.8,0.2-1.2v-0.7H119.3z
					 M126,35.9h1.7v10.3H126V35.9z M125.6,31.8c0-0.3,0.1-0.6,0.4-0.9c0.2-0.2,0.5-0.4,0.9-0.4c0.4,0,0.6,0.1,0.9,0.4
					c0.2,0.2,0.4,0.5,0.4,0.9c0,0.4-0.1,0.7-0.4,0.9c-0.2,0.2-0.5,0.4-0.9,0.4c-0.4,0-0.7-0.1-0.9-0.4
					C125.7,32.5,125.6,32.2,125.6,31.8z"/>
			</g>
		</g>
	</g>
	<path id="Rectangle-2-Copy-18_1_" class="st1" d="M124,93.1h69.2c4.5,0,8.1,3.6,8.1,8.1v69.2c0,4.5-3.6,8.1-8.1,8.1H124
		c-4.5,0-8.1-3.6-8.1-8.1v-69.2C116,96.7,119.6,93.1,124,93.1z"/>
	<g id="ff_8_" transform="translate(51.000000, 70.000000)">
		<g id="icon-copy-17_5_">
			<g id="icon_5_" transform="translate(0.574420, 0.269667)">
				<g id="Asset-5_5_">
					<g id="Layer_2_4_">
						<g id="Layer_1-2_5_">
							<path id="Shape_31_" class="st0" d="M120.3,76c-2.8,4.5-7.7,7.2-13.1,7.2S97,80.4,94.2,76c4.8-0.7,9.3-2.8,12.9-5.9l0.3,0.1
								C111.1,73.3,115.5,75.3,120.3,76L120.3,76z"/>
							<g id="Shape_30_">
								
									<rect x="104.8" y="69.9" transform="matrix(0.3652 -0.9309 0.9309 0.3652 2.8248 144.3292)" class="st0" width="4.8" height="0.4"/>
							</g>
							<g id="Shape_29_">
								<path class="st0" d="M107.2,87.1c-6.4,0-12.2-3.2-15.5-8.6l5-3.1c2.2,3.6,6.3,5.8,10.6,5.8c4.3,0,8.3-2.2,10.6-5.8l5,3.1
									C119.4,83.9,113.6,87.1,107.2,87.1z"/>
							</g>
							<g id="Shape_28_">
								<path class="st0" d="M124,78.6c-1.3,0-2.7-0.1-4-0.3c-5.2-0.8-10.1-2.9-14.1-6.3l-0.3-0.2l3.2-3.7l0.3,0.2
									c3.3,2.8,7.3,4.6,11.6,5.2c1.1,0.2,2.2,0.2,3.3,0.2c0,0,0,0,0,0c2.1,0,4.2-0.3,6.2-0.8c0.6-10-5.7-19.5-15.4-22.8l1.6-4.6
									c6,2.1,11.2,6.2,14.5,11.5c3.3,5.4,4.7,11.8,3.9,18l-0.2,1.5l-1.4,0.5C130.2,78.1,127.1,78.6,124,78.6
									C124,78.6,124,78.6,124,78.6z"/>
							</g>
							<g id="Shape_27_">
								<path class="st0" d="M90.3,78.6c-3.1,0-6.2-0.5-9.2-1.6l-1.4-0.5l-0.2-1.5c-0.1-1.2-0.2-2.3-0.2-3.5
									c0-11.7,7.5-22.2,18.7-26.1l1.6,4.6C90.3,53.3,84.1,62,84.1,71.6c0,0.4,0,0.9,0,1.4c2,0.6,4.1,0.8,6.2,0.8c0,0,0,0,0,0
									c1.2,0,2.3-0.1,3.5-0.3c4.3-0.6,8.4-2.5,11.7-5.4l0.1-0.1l3.1,3.7l-0.1,0.1c-4,3.5-8.9,5.7-14.1,6.5
									C93.1,78.5,91.7,78.6,90.3,78.6C90.3,78.6,90.3,78.6,90.3,78.6z"/>
							</g>
							<g id="Shape_26_">
								<path class="st0" d="M107.2,73.1l-1.6-1.4c-6-5.2-9.5-12.8-9.5-20.7c0-1.2,0.1-2.3,0.2-3.5l0.2-1.5l1.4-0.5
									c5.9-2.1,12.5-2.1,18.4,0l1.4,0.5l0.2,1.5c1.2,9.1-2.3,18.2-9.2,24.2L107.2,73.1z M101,49.7c0,0.5,0,0.9,0,1.4
									c0,5.8,2.2,11.4,6.2,15.6c4.3-4.6,6.6-10.7,6.2-16.9C109.3,48.6,105,48.6,101,49.7z"/>
							</g>
						</g>
					</g>
				</g>
			</g>
		</g>
	</g>
</g>
</svg>
